<?xml version="1.0" ?>
<!DOCTYPE svg  PUBLIC '-//W3C//DTD SVG 1.1//EN'  'http://www.w3.org/Graphics/SVG/1.1/DTD/svg11.dtd'>
<svg  width="141.732px" height="95.732px"  version="1.1" viewBox="-0.708 15.45 141.732 51.732"  xml:space="preserve" xmlns="http://www.w3.org/2000/svg" xmlns:xlink="http://www.w3.org/1999/xlink">
<path fill="rgb(68,68,68)" d="M134.906,57.109c0,13.418-10.844,24.293-24.219,24.293S86.469,70.527,86.469,57.109   c0.002-13.417,10.844-24.293,24.219-24.293c5.729-0.002,10.994,2.01,15.143,5.35l2.188,1.99   C132.273,44.535,134.904,50.51,134.906,57.109 M54.016,57.109c0,13.418-10.875,24.293-24.293,24.293S5.43,70.527,5.43,57.109   C5.428,43.693,16.305,32.816,29.723,32.816S54.016,43.691,54.016,57.109 M140.316,57.109c0-10.32-5.248-19.404-13.209-24.732   L92.537,0.916c-0.824-0.75-2.346-0.577-3.397,0.385c-1.06,0.959-1.244,2.346-0.425,3.094l25.527,23.227   c-1.166-0.139-2.35-0.232-3.553-0.232c-16.365-0.002-29.631,13.307-29.631,29.721c0,0.609,0.055,1.207,0.092,1.811   c-2.879-2.629-6.697-4.244-10.9-4.244s-8.021,1.615-10.896,4.242c0.037-0.6,0.092-1.197,0.094-1.809   c0-16.417-13.307-29.721-29.723-29.723c-1.392,0.002-2.744,0.131-4.084,0.314L51.747,3.945c0.824-0.75,0.642-2.139-0.418-3.098   c-1.055-0.961-2.578-1.129-3.399-0.379L11.184,33.902c-0.988,0.789-1.924,1.639-2.804,2.547l-0.188,0.176l0.016,0.016   C3.135,41.971,0,49.168,0,57.109C0.002,73.525,13.31,86.832,29.724,86.832c13.5,0,24.881-9.01,28.502-21.338   c2.963-3.295,7.248-5.377,12.022-5.377c4.779,0.002,9.062,2.08,12.023,5.371c3.606,12.332,14.953,21.344,28.414,21.344   C127.052,86.832,140.316,73.523,140.316,57.109"/>
</svg>